<?xml version="1.0" encoding="utf-8"?>
<!-- Generator: Adobe Illustrator 24.2.0, SVG Export Plug-In . SVG Version: 6.00 Build 0)  -->
<svg version="1.1" id="Layer_1" xmlns="http://www.w3.org/2000/svg" xmlns:xlink="http://www.w3.org/1999/xlink" x="0px" y="0px"
	 viewBox="0 0 107.1 6.58" style="enable-background:new 0 0 107.1 6.58;" xml:space="preserve">
<style type="text/css">
	.st0{fill:none;stroke:#FFFFFF;stroke-miterlimit:10;}
</style>
<g>
	<g>
		<line class="st0" x1="3.29" y1="0" x2="3.29" y2="6.58"/>
		<line class="st0" x1="6.58" y1="3.29" x2="0" y2="3.29"/>
	</g>
	<g>
		<line class="st0" x1="15.86" y1="0" x2="15.86" y2="6.58"/>
		<line class="st0" x1="19.15" y1="3.29" x2="12.57" y2="3.29"/>
	</g>
	<g>
		<line class="st0" x1="28.42" y1="0" x2="28.42" y2="6.58"/>
		<line class="st0" x1="31.71" y1="3.29" x2="25.13" y2="3.29"/>
	</g>
	<g>
		<line class="st0" x1="40.99" y1="0" x2="40.99" y2="6.58"/>
		<line class="st0" x1="44.28" y1="3.29" x2="37.7" y2="3.29"/>
	</g>
	<g>
		<line class="st0" x1="53.55" y1="0" x2="53.55" y2="6.58"/>
		<line class="st0" x1="56.84" y1="3.29" x2="50.26" y2="3.29"/>
	</g>
	<g>
		<line class="st0" x1="66.12" y1="0" x2="66.12" y2="6.58"/>
		<line class="st0" x1="69.41" y1="3.29" x2="62.83" y2="3.29"/>
	</g>
	<g>
		<line class="st0" x1="78.68" y1="0" x2="78.68" y2="6.58"/>
		<line class="st0" x1="81.97" y1="3.29" x2="75.39" y2="3.29"/>
	</g>
	<g>
		<line class="st0" x1="91.25" y1="0" x2="91.25" y2="6.58"/>
		<line class="st0" x1="94.54" y1="3.29" x2="87.96" y2="3.29"/>
	</g>
	<g>
		<line class="st0" x1="103.81" y1="0" x2="103.81" y2="6.58"/>
		<line class="st0" x1="107.1" y1="3.29" x2="100.52" y2="3.29"/>
	</g>
</g>
</svg>
